<?xml version="1.0" standalone="no"?>
<!DOCTYPE svg PUBLIC "-//W3C//DTD SVG 20010904//EN"
 "http://www.w3.org/TR/2001/REC-SVG-20010904/DTD/svg10.dtd">
<svg version="1.0" xmlns="http://www.w3.org/2000/svg"
 width="1000.000000pt" height="217.000000pt" viewBox="0 0 1000.000000 217.000000"
 preserveAspectRatio="xMidYMid meet">

<g transform="translate(0.000000,217.000000) scale(0.100000,-0.100000)"
fill="Yellow" stroke="none">
<path d="M1915 1913 c-186 -23 -393 -127 -513 -257 -43 -47 -54 -90 -30 -114
26 -26 60 -12 133 56 161 149 346 220 545 208 119 -7 192 -26 300 -79 69 -33
102 -58 176 -132 77 -76 98 -105 137 -185 69 -139 82 -199 82 -365 0 -126 -3
-147 -27 -213 -84 -231 -284 -412 -529 -478 -96 -26 -253 -24 -353 4 -119 34
-223 93 -316 178 -82 75 -119 91 -148 62 -29 -29 -14 -64 61 -134 186 -177
356 -241 617 -231 110 4 151 9 220 32 293 93 514 333 576 627 23 107 14 328
-16 423 -81 254 -273 460 -513 550 -117 44 -280 63 -402 48z"/>
<path d="M3520 1465 c0 -155 -7 -204 -23 -162 -2 7 -29 26 -58 42 -49 27 -62
30 -149 30 -75 0 -104 -4 -141 -21 -66 -31 -114 -78 -146 -142 -25 -51 -28
-67 -28 -162 0 -127 18 -183 82 -251 66 -70 127 -94 243 -94 86 0 99 3 143 28
27 16 51 35 54 43 9 25 20 15 27 -26 l6 -40 75 0 75 0 0 465 0 465 -80 0 -80
0 0 -175z m-127 -249 c59 -24 117 -111 117 -176 0 -65 -58 -152 -117 -176 -45
-19 -121 -17 -162 4 -54 27 -93 83 -99 141 -2 27 -1 66 2 86 8 42 58 103 101
121 39 17 117 17 158 0z"/>
<path d="M5290 1175 l0 -465 80 0 80 0 0 190 c0 213 5 236 63 287 58 51 136
56 192 11 49 -38 55 -69 55 -288 l0 -200 80 0 80 0 0 218 c0 161 -4 231 -14
266 -37 122 -114 178 -246 178 -80 0 -113 -10 -177 -59 l-33 -24 0 175 0 176
-80 0 -80 0 0 -465z"/>
<path d="M1850 1499 c-14 -5 -39 -25 -57 -44 l-32 -35 -400 0 -401 0 0 -50 0
-50 395 0 395 0 37 -34 c69 -61 114 -71 180 -39 98 46 98 195 -1 243 -46 22
-77 24 -116 9z"/>
<path d="M3993 1362 c-101 -36 -171 -114 -194 -217 -19 -85 -8 -220 24 -281
50 -97 118 -146 230 -164 106 -17 195 8 253 70 l29 30 5 -42 5 -43 73 -3 72
-3 0 331 0 330 -75 0 -75 0 0 -40 c0 -39 -13 -53 -23 -26 -3 8 -27 27 -53 42
-63 37 -191 45 -271 16z m234 -141 c141 -65 138 -300 -4 -363 -95 -42 -209 -4
-254 85 -40 78 -23 195 38 249 53 49 149 61 220 29z"/>
<path d="M4762 1364 c-61 -23 -117 -79 -132 -133 -36 -135 58 -227 254 -250
103 -12 136 -29 136 -69 0 -95 -174 -108 -300 -23 l-44 29 -39 -56 -39 -56 37
-33 c109 -94 340 -110 458 -32 84 56 113 176 64 264 -28 50 -104 91 -185 100
-141 14 -192 36 -192 81 0 65 139 88 236 39 l49 -25 42 47 c24 27 41 53 39 58
-1 6 -29 24 -61 40 -53 27 -68 30 -169 32 -80 2 -123 -2 -154 -13z"/>
<path d="M2275 1199 c-11 -7 -34 -27 -51 -45 l-32 -34 -821 0 -821 0 0 -50 0
-50 821 0 822 0 42 -39 c26 -23 58 -42 78 -46 102 -19 190 80 158 178 -19 57
-62 90 -123 94 -30 2 -62 -2 -73 -8z"/>
<path d="M1866 909 c-16 -4 -47 -25 -68 -46 l-39 -38 -399 -3 -400 -3 0 -44 0
-45 395 0 394 0 51 -45 c44 -39 56 -45 96 -45 85 0 144 55 144 136 0 89 -90
158 -174 133z"/>
</g>
</svg>
