<?xml version="1.0" standalone="no"?>
<!DOCTYPE svg PUBLIC "-//W3C//DTD SVG 20010904//EN"
 "http://www.w3.org/TR/2001/REC-SVG-20010904/DTD/svg10.dtd">
<svg version="1.0" xmlns="http://www.w3.org/2000/svg"
 width="1000.000000pt" height="1000.000000pt" viewBox="0 0 1000.000000 1000.000000"
 preserveAspectRatio="xMidYMid meet">

<g transform="translate(0.000000,217.000000) scale(0.100000,-0.100000)"
fill="Yellow" stroke="none">
<path d="M5001 22484 c-200 -54 -351 -241 -390 -484 -8 -45 -11 -1192 -11
-3642 l0 -3578 -80 0 c-89 0 -120 -17 -120 -64 0 -45 23 -56 116 -56 l84 0 0
-1472 -1 -1473 -694 -835 -693 -835 48 -3 49 -3 3 -562 c3 -558 4 -563 27
-632 42 -126 89 -204 176 -290 89 -90 156 -128 263 -151 57 -12 1165 -14 7742
-14 5309 0 7695 3 7740 11 208 33 386 210 461 459 23 74 23 86 27 657 l3 581
-23 4 c-16 2 -209 227 -690 807 l-668 805 -2 5140 c-3 4968 -4 5143 -22 5206
-56 198 -177 346 -336 412 l-55 23 -6450 2 c-5614 1 -6457 0 -6504 -13z
m12926 -365 c42 -16 83 -58 109 -114 l24 -50 0 -5062 0 -5063 -6580 0 -6580 0
0 5038 c0 4183 2 5046 13 5089 18 66 50 114 101 147 l40 26 6422 0 c4514 0
6431 -3 6451 -11z m661 -11182 l432 -522 -3035 -3 c-2613 -2 -3035 -4 -3035
-16 0 -17 -57 -530 -65 -594 l-6 -42 -1397 2 -1397 3 -35 320 -35 320 -3033 3
c-1669 1 -3032 6 -3030 10 2 5 196 241 432 525 l429 517 6671 0 6671 -1 433
-522z m-8834 -934 c3 -21 13 -103 21 -183 9 -80 22 -167 30 -195 18 -64 63
-135 107 -168 79 -61 -29 -57 1575 -57 1405 0 1470 1 1508 19 58 27 114 86
147 156 24 53 32 91 51 261 l23 199 3117 3 3117 2 0 -489 c0 -288 -4 -510 -10
-542 -20 -107 -81 -192 -164 -230 -40 -18 -252 -19 -7749 -19 l-7707 0 -45 21
c-54 25 -110 85 -139 148 -20 45 -21 59 -24 579 l-3 532 3070 0 3069 0 6 -37z"/>
<path d="M5530 16980 l0 -4380 5955 0 5955 0 0 4380 0 4380 -5955 0 -5955 0 0
-4380z m11710 0 l0 -4140 -5755 0 -5755 0 0 4140 0 4140 5755 0 5755 0 0
-4140z"/>
<path d="M12668 17793 c-166 -158 -3195 -3239 -3210 -3266 -43 -77 -30 -177
32 -239 33 -34 43 -38 87 -38 36 0 59 6 81 23 55 39 3226 3266 3245 3302 43
80 30 175 -33 237 -34 34 -43 38 -90 38 -49 0 -54 -3 -112 -57z"/>
<path d="M10144 16334 c-10 -4 -1427 -1438 -1931 -1955 -195 -199 -201 -207
-212 -260 -18 -90 8 -158 79 -206 38 -27 79 -29 119 -8 42 21 2116 2129 2135
2169 37 78 8 207 -56 246 -31 19 -104 26 -134 14z"/>
<path d="M1490 21207 c-53 -26 -60 -62 -60 -299 0 -120 -2 -218 -4 -218 -2 0
-76 29 -164 65 -89 36 -170 65 -181 65 -12 0 -35 -13 -52 -28 -27 -24 -33 -37
-36 -83 -7 -92 6 -103 205 -183 l171 -70 -18 -30 c-10 -17 -56 -92 -101 -166
-46 -74 -87 -148 -91 -164 -12 -43 6 -100 42 -130 65 -55 99 -31 205 141 43
71 88 145 102 166 l23 39 101 -164 c55 -89 106 -171 115 -180 40 -45 123 -24
149 37 26 64 19 84 -93 271 -59 97 -103 179 -98 181 274 112 330 139 352 172
13 19 23 49 23 68 0 63 -47 123 -97 123 -12 0 -94 -29 -181 -65 -87 -36 -161
-65 -165 -65 -3 0 -7 106 -9 236 l-3 236 -33 29 c-35 31 -63 36 -102 16z"/>
<path d="M18447 18882 c-23 -25 -21 -58 3 -82 18 -18 33 -20 178 -20 177 0
202 7 202 60 0 56 -14 60 -199 60 -150 0 -170 -2 -184 -18z"/>
<path d="M18956 18884 c-22 -21 -20 -67 2 -87 16 -14 44 -17 180 -17 149 0
164 2 182 20 24 24 25 48 4 78 -15 21 -21 22 -184 22 -140 0 -171 -3 -184 -16z"/>
<path d="M19460 18884 c-20 -23 -16 -75 5 -90 14 -11 60 -14 181 -14 181 0
194 4 194 64 0 54 -8 56 -196 56 -143 0 -174 -3 -184 -16z"/>
<path d="M19966 18878 c-21 -30 -20 -54 4 -78 18 -18 33 -20 178 -20 177 0
202 7 202 60 0 56 -14 60 -200 60 -163 0 -169 -1 -184 -22z"/>
<path d="M20476 18885 c-22 -22 -20 -68 3 -89 16 -14 40 -16 187 -14 l168 3
16 28 c13 24 13 30 0 55 l-16 27 -171 3 c-146 2 -173 0 -187 -13z"/>
<path d="M20974 18845 c-14 -21 -14 -30 -4 -54 10 -26 21 -31 96 -50 46 -12
119 -34 163 -50 71 -26 81 -28 100 -14 24 16 28 60 9 85 -24 28 -263 108 -327
108 -11 0 -28 -11 -37 -25z"/>
<path d="M21472 18683 c-18 -7 -34 -51 -27 -75 4 -10 39 -40 79 -67 40 -27
104 -74 142 -105 75 -60 92 -66 117 -38 40 44 12 84 -128 187 -67 49 -157 106
-166 104 -2 0 -10 -3 -17 -6z"/>
<path d="M21877 18322 c-29 -32 -20 -64 37 -132 29 -36 80 -103 112 -150 39
-55 67 -86 81 -88 29 -4 57 38 47 70 -19 62 -215 318 -243 318 -10 0 -25 -8
-34 -18z"/>
<path d="M22186 17838 c-9 -12 -16 -26 -16 -30 0 -5 20 -54 44 -111 23 -56 55
-139 70 -185 29 -87 51 -111 85 -93 34 19 33 54 -8 173 -22 63 -56 149 -75
191 -30 66 -38 77 -60 77 -14 0 -31 -9 -40 -22z"/>
<path d="M22379 17282 l-22 -19 17 -119 c9 -65 19 -157 23 -204 3 -47 10 -93
15 -102 13 -26 55 -22 73 6 13 20 14 39 5 137 -19 207 -37 295 -63 311 -17 11
-22 10 -48 -10z"/>
<path d="M22418 16673 c-10 -12 -18 -48 -23 -103 -4 -47 -15 -134 -25 -195
-19 -118 -15 -149 20 -160 51 -16 69 40 95 292 11 99 11 134 2 153 -15 31 -48
37 -69 13z"/>
<path d="M22312 16077 c-6 -7 -26 -55 -45 -107 -19 -52 -51 -132 -71 -178 -22
-48 -35 -91 -31 -101 9 -29 32 -44 59 -37 20 5 33 28 74 123 76 181 98 257 84
288 -13 27 -52 34 -70 12z"/>
<path d="M22024 15488 c-27 -40 -75 -104 -108 -143 -72 -86 -82 -109 -61 -141
28 -43 56 -31 124 50 142 172 185 258 149 294 -28 28 -54 13 -104 -60z"/>
<path d="M21659 15088 c-35 -28 -101 -75 -146 -105 -77 -50 -83 -55 -83 -87 0
-25 7 -39 22 -50 20 -14 25 -14 67 10 55 30 185 124 229 163 36 33 43 79 16
105 -24 24 -36 20 -105 -36z"/>
<path d="M21225 14838 c-27 -11 -97 -32 -155 -47 -86 -22 -107 -31 -118 -51
-11 -19 -11 -31 -3 -54 11 -28 12 -29 71 -23 71 8 273 71 295 93 21 21 19 67
-3 87 -23 21 -25 21 -87 -5z"/>
<path d="M3412 14764 c-25 -18 -31 -74 -8 -93 9 -8 68 -11 187 -9 l174 3 13
27 c15 33 0 74 -32 82 -11 3 -86 6 -166 6 -116 0 -150 -3 -168 -16z"/>
<path d="M3924 14770 c-29 -12 -39 -56 -19 -86 15 -24 17 -24 188 -24 189 0
197 2 197 56 0 57 -23 64 -195 63 -82 0 -160 -4 -171 -9z"/>
<path d="M3021 14754 c-111 -14 -141 -29 -141 -71 0 -29 36 -67 57 -59 8 4 70
11 137 17 157 14 178 19 195 51 13 23 13 28 -2 52 -16 24 -23 26 -80 25 -34
-1 -109 -7 -166 -15z"/>
<path d="M18446 14728 c-9 -12 -16 -29 -16 -38 0 -9 7 -26 16 -38 15 -21 21
-22 173 -22 140 0 160 2 174 18 22 24 21 65 -1 85 -16 14 -43 17 -175 17 -150
0 -156 -1 -171 -22z"/>
<path d="M18937 14732 c-21 -23 -22 -66 -1 -86 13 -13 44 -16 184 -16 163 0
169 1 184 22 21 30 20 54 -4 78 -18 18 -33 20 -183 20 -146 0 -166 -2 -180
-18z"/>
<path d="M19445 14736 c-11 -8 -18 -26 -18 -46 0 -55 17 -60 196 -60 90 0 167
4 178 10 24 13 26 72 3 94 -21 22 -330 24 -359 2z"/>
<path d="M19946 14728 c-9 -12 -16 -29 -16 -38 0 -9 7 -26 16 -38 15 -21 21
-22 183 -22 150 0 170 2 184 18 22 24 21 65 -1 85 -16 14 -44 17 -185 17 -160
0 -166 -1 -181 -22z"/>
<path d="M20457 14732 c-21 -23 -22 -66 -1 -86 13 -13 44 -16 180 -16 151 0
166 2 184 20 24 24 25 48 4 78 -15 21 -21 22 -183 22 -150 0 -170 -2 -184 -18z"/>
<path d="M2650 14684 c-106 -28 -239 -75 -250 -89 -16 -19 -9 -76 11 -88 16
-10 59 1 313 76 49 15 67 54 42 92 -19 28 -36 30 -116 9z"/>
<path d="M2082 14468 c-154 -77 -182 -101 -166 -145 19 -53 31 -51 195 31 158
79 179 94 179 131 0 24 -29 55 -51 55 -8 0 -79 -33 -157 -72z"/>
<path d="M1665 14218 c-142 -100 -184 -137 -191 -164 -7 -28 19 -74 42 -74 14
0 223 149 287 204 15 13 27 33 27 45 0 23 -33 61 -52 61 -7 0 -58 -33 -113
-72z"/>
<path d="M1209 13830 c-66 -66 -124 -131 -129 -145 -12 -33 2 -71 31 -80 18
-6 42 14 155 126 114 114 134 138 134 164 0 37 -16 55 -48 55 -17 0 -57 -33
-143 -120z"/>
<path d="M924 13506 c-64 -76 -184 -250 -191 -274 -9 -36 12 -72 42 -72 19 0
34 12 58 47 17 25 67 93 110 150 61 82 77 111 77 138 0 24 -6 38 -19 45 -31
16 -38 13 -77 -34z"/>
<path d="M623 13061 c-10 -11 -56 -92 -101 -180 -89 -171 -95 -201 -46 -223
19 -9 28 -8 44 7 11 10 20 23 20 28 0 5 36 76 80 158 47 87 80 159 80 176 0
52 -43 70 -77 34z"/>
<path d="M363 12538 c-12 -15 -63 -147 -104 -267 -37 -108 -38 -147 -4 -163
33 -15 57 7 74 65 7 23 35 101 62 174 51 136 57 171 37 191 -16 16 -53 15 -65
0z"/>
<path d="M177 11975 c-15 -14 -49 -146 -83 -318 -20 -101 -12 -137 30 -137 35
0 44 17 66 124 11 53 29 134 40 178 23 92 25 139 8 156 -16 16 -43 15 -61 -3z"/>
<path d="M56 11368 c-15 -25 -31 -147 -42 -318 -6 -99 -5 -106 15 -124 17 -16
25 -17 45 -8 28 12 26 5 50 262 13 144 13 168 0 188 -8 12 -23 22 -34 22 -11
0 -26 -10 -34 -22z"/>
<path d="M14 10755 c-14 -21 -15 -48 -9 -202 4 -98 11 -192 16 -210 13 -40 44
-52 70 -26 18 17 18 32 12 227 -7 218 -11 236 -53 236 -11 0 -27 -11 -36 -25z"/>
<path d="M55 10160 c-20 -22 -18 -62 16 -260 29 -170 36 -189 64 -196 52 -13
68 41 44 145 -5 24 -18 102 -29 175 -14 96 -24 134 -37 144 -23 17 -37 15 -58
-8z"/>
<path d="M165 9556 c-19 -28 -12 -60 56 -278 48 -154 72 -184 113 -142 23 23
21 37 -34 219 -27 91 -50 172 -50 179 0 18 -33 46 -53 46 -9 0 -24 -11 -32
-24z"/>
<path d="M350 8991 c-16 -32 -13 -44 55 -199 82 -185 98 -212 128 -212 57 0
61 52 13 148 -18 37 -55 115 -81 175 -44 100 -49 107 -76 107 -18 0 -32 -7
-39 -19z"/>
<path d="M616 8474 c-31 -30 -18 -68 65 -200 102 -163 126 -194 149 -194 21 0
50 35 50 61 0 9 -28 59 -62 110 -33 52 -79 123 -101 159 -52 85 -69 96 -101
64z"/>
<path d="M942 8004 c-51 -35 -26 -81 146 -271 74 -83 102 -99 130 -71 29 29
14 69 -56 147 -37 42 -90 102 -116 134 -61 72 -76 81 -104 61z"/>
<path d="M1315 7596 c-11 -8 -18 -26 -18 -47 0 -27 9 -41 54 -82 102 -92 224
-187 241 -187 25 0 51 45 44 74 -3 13 -37 49 -75 79 -38 31 -100 83 -137 116
-38 34 -74 61 -80 61 -5 0 -19 -6 -29 -14z"/>
<path d="M1736 7254 c-9 -8 -16 -29 -16 -45 0 -35 32 -60 201 -157 117 -67
142 -72 159 -26 14 37 -4 71 -52 95 -24 12 -89 51 -146 85 -56 35 -109 64
-117 64 -7 0 -21 -7 -29 -16z"/>
<path d="M2196 7004 c-17 -16 -21 -61 -8 -81 17 -26 314 -137 343 -128 22 7
34 45 25 79 -5 19 -19 29 -58 42 -29 9 -102 37 -161 61 -60 23 -113 43 -117
43 -5 0 -16 -7 -24 -16z"/>
<path d="M21255 6886 c-68 -31 -72 -71 -30 -316 19 -112 32 -206 30 -208 -2
-3 -83 8 -179 22 -189 29 -197 29 -235 -20 -40 -50 -22 -155 31 -182 12 -6 97
-23 187 -37 91 -14 167 -27 169 -30 2 -2 -31 -90 -73 -194 -69 -169 -77 -196
-72 -237 6 -54 36 -90 83 -100 56 -11 85 28 164 225 39 95 74 180 79 188 6 12
37 -18 134 -130 70 -79 134 -147 143 -151 69 -26 134 30 134 115 0 44 -11 60
-141 211 -66 75 -119 141 -119 146 0 5 65 52 145 106 183 122 209 159 171 251
-14 32 -59 65 -90 65 -8 0 -86 -47 -173 -105 l-158 -104 -36 212 c-19 117 -41
223 -48 235 -7 13 -28 30 -46 38 -40 16 -33 16 -70 0z"/>
<path d="M2676 6828 c-48 -68 17 -101 267 -138 71 -10 81 -10 98 6 24 21 25
66 2 86 -10 9 -43 19 -73 23 -30 4 -97 16 -149 26 -118 24 -127 24 -145 -3z"/>
<path d="M3186 6764 c-9 -8 -16 -28 -16 -44 0 -56 14 -60 200 -60 168 0 170 0
185 24 21 32 10 75 -22 87 -13 5 -93 9 -178 9 -126 0 -156 -3 -169 -16z"/>
<path d="M3704 6770 c-29 -12 -39 -56 -19 -86 15 -24 17 -24 188 -24 189 0
197 2 197 56 0 57 -23 64 -195 63 -82 0 -160 -4 -171 -9z"/>
<path d="M4220 6773 c-39 -14 -53 -69 -24 -97 23 -24 345 -24 368 0 20 19 20
54 2 80 -13 17 -29 19 -173 21 -87 1 -165 0 -173 -4z"/>
<path d="M4712 6764 c-25 -17 -31 -71 -10 -92 8 -8 64 -12 185 -12 171 0 173
0 188 24 21 32 10 75 -22 87 -13 5 -91 9 -171 9 -117 0 -152 -3 -170 -16z"/>
<path d="M5224 6770 c-29 -12 -39 -56 -19 -86 15 -24 17 -24 188 -24 189 0
197 2 197 56 0 57 -23 64 -195 63 -82 0 -160 -4 -171 -9z"/>
<path d="M5740 6773 c-39 -14 -53 -69 -24 -97 13 -13 45 -16 190 -16 l174 0
11 24 c16 35 3 75 -27 86 -26 10 -297 13 -324 3z"/>
<path d="M6232 6764 c-25 -17 -31 -71 -10 -92 8 -8 64 -12 185 -12 171 0 173
0 188 24 21 32 10 75 -22 87 -13 5 -91 9 -171 9 -117 0 -152 -3 -170 -16z"/>
<path d="M6748 6773 c-9 -2 -22 -17 -28 -33 -10 -25 -10 -34 4 -55 l16 -25
173 0 c189 0 197 2 197 56 0 57 -23 64 -195 63 -82 -1 -157 -3 -167 -6z"/>
<path d="M7260 6773 c-39 -14 -53 -69 -24 -97 13 -13 45 -16 190 -16 l174 0
11 24 c16 35 3 75 -27 86 -26 10 -297 13 -324 3z"/>
<path d="M7753 6765 c-25 -17 -30 -54 -13 -86 10 -18 23 -19 178 -19 92 0 172
4 179 8 22 14 32 57 19 83 -11 24 -14 24 -176 27 -137 2 -169 0 -187 -13z"/>
<path d="M8246 6757 c-20 -30 -13 -73 14 -87 10 -6 93 -10 183 -10 179 0 190
3 190 56 0 51 -17 56 -201 62 l-170 5 -16 -26z"/>
<path d="M8761 6741 c-26 -26 -27 -52 -3 -79 14 -16 49 -24 186 -42 164 -22
170 -22 183 -4 7 10 13 28 13 41 0 25 -32 63 -53 63 -8 0 -60 7 -118 15 -198
28 -186 28 -208 6z"/>
<path d="M9255 6646 c-21 -32 -13 -73 18 -85 37 -14 312 -101 319 -101 4 0 14
7 22 16 21 21 20 67 -2 87 -20 18 -239 93 -301 103 -35 6 -41 3 -56 -20z"/>
<path d="M9740 6470 c-23 -43 -9 -73 50 -107 30 -17 99 -59 152 -93 104 -66
132 -70 144 -24 14 57 -19 89 -214 200 -85 49 -116 54 -132 24z"/>
<path d="M10182 6178 c-7 -7 -12 -26 -12 -43 0 -24 12 -42 56 -85 30 -30 85
-90 121 -132 36 -42 72 -79 80 -82 22 -9 52 11 59 40 9 34 -25 82 -147 209
-101 105 -129 121 -157 93z"/>
<path d="M10542 5748 c-19 -19 -14 -77 9 -109 11 -16 51 -88 88 -161 55 -108
72 -134 91 -136 28 -4 50 21 50 55 0 37 -154 334 -184 355 -16 11 -41 9 -54
-4z"/>
<path d="M10790 5220 c-26 -26 -26 -26 14 -150 18 -58 44 -145 56 -193 25 -94
43 -117 80 -97 11 6 22 21 26 34 11 47 -95 399 -126 416 -25 13 -27 13 -50
-10z"/>
<path d="M10935 4626 c-14 -22 -14 -33 -1 -112 8 -49 20 -134 26 -189 14 -128
21 -145 59 -145 41 0 54 28 46 93 -23 182 -49 345 -56 360 -14 25 -56 21 -74
-7z"/>
<path d="M11006 4035 c-13 -14 -15 -44 -9 -223 3 -114 10 -215 15 -224 13 -26
64 -24 79 4 17 31 2 405 -17 436 -17 26 -46 29 -68 7z"/>
<path d="M19365 3998 c-109 -60 -147 -210 -81 -323 30 -51 56 -71 109 -86 72
-19 149 24 190 106 49 100 16 233 -72 292 -37 25 -111 31 -146 11z"/>
<path d="M11016 3418 c-13 -19 -16 -57 -16 -221 0 -118 4 -206 10 -218 7 -12
21 -19 40 -19 19 0 33 7 40 19 6 12 10 100 10 218 0 211 -7 243 -50 243 -10 0
-26 -10 -34 -22z"/>
<path d="M11020 2810 c-19 -19 -20 -33 -20 -221 0 -119 4 -208 10 -220 7 -12
21 -19 40 -19 19 0 33 7 40 19 6 12 10 101 10 220 0 188 -1 202 -20 221 -11
11 -24 20 -30 20 -5 0 -19 -9 -30 -20z"/>
<path d="M11036 2213 c-4 -4 -239 -10 -521 -13 l-513 -5 521 -1087 c286 -599
523 -1088 527 -1088 4 0 241 489 528 1087 l520 1088 -511 5 c-282 3 -519 9
-528 13 -8 4 -19 4 -23 0z"/>
</g>
</svg>
