<?xml version="1.0" standalone="no"?>
<!DOCTYPE svg PUBLIC "-//W3C//DTD SVG 20010904//EN"
 "http://www.w3.org/TR/2001/REC-SVG-20010904/DTD/svg10.dtd">
<svg version="1.0" xmlns="http://www.w3.org/2000/svg"
 width="1014.000000pt" height="717.000000pt" viewBox="0 0 1014.000000 717.000000"
 preserveAspectRatio="xMidYMid meet">

<g transform="translate(0.000000,217.000000) scale(0.100000,-0.100000)"
fill="Yellow" stroke="none">
<path d="M8935 4159 c-308 -4 -1903 -24 -3545 -43 -1642 -20 -3302 -40 -3690
-46 -388 -5 -780 -10 -872 -10 -161 0 -168 -1 -168 -20 0 -20 8 -20 4265 -22
l4265 -3 -692 -519 c-381 -286 -687 -521 -680 -524 7 -2 272 155 590 349 317
193 754 460 970 592 215 131 392 243 392 248 0 5 -62 8 -137 7 -76 -1 -390 -5
-698 -9z"/>
<path d="M695 3870 c-120 -17 -195 -88 -195 -184 0 -36 6 -50 31 -75 16 -17
48 -36 70 -42 118 -36 43 -84 -93 -59 -38 6 -72 10 -74 7 -3 -3 -11 -31 -19
-63 -16 -69 -17 -68 73 -85 210 -39 406 60 377 190 -8 36 -64 89 -122 115 -24
10 -43 25 -43 32 0 27 41 34 193 34 l154 0 -58 -182 c-33 -100 -59 -184 -59
-185 0 -2 49 -3 109 -3 l109 0 62 185 62 185 83 0 83 0 21 61 c11 34 18 66 15
70 -6 11 -707 10 -779 -1z"/>
<path d="M1598 3853 c-37 -41 -388 -472 -388 -478 0 -3 51 -5 113 -5 l112 1
27 39 28 40 95 0 95 0 6 -40 7 -40 206 0 206 0 35 103 c29 84 39 102 55 102
28 0 63 -72 71 -146 l7 -59 100 0 100 0 -6 71 c-4 47 -14 84 -30 114 l-25 44
37 26 c70 48 101 141 65 194 -29 41 -69 49 -271 57 l-191 7 -79 -239 c-51
-156 -79 -230 -82 -214 -2 14 -15 120 -30 235 l-26 210 -106 3 c-103 3 -105 2
-131 -25z m720 -114 c4 -33 -38 -69 -80 -69 -27 0 -30 3 -24 25 17 69 24 76
63 73 33 -3 38 -7 41 -29z m-642 -174 c-6 -16 -91 -22 -100 -6 -3 4 16 37 42
72 l47 63 9 -57 c4 -31 6 -64 2 -72z"/>
<path d="M2652 3868 c-9 -12 -162 -474 -162 -490 0 -5 49 -8 108 -8 l108 0 28
85 c15 47 30 85 34 85 4 0 27 -38 50 -85 l44 -85 124 0 c68 0 124 2 124 6 0 3
-29 60 -65 128 l-65 122 145 118 c80 64 145 121 145 126 0 6 -42 10 -98 10
l-97 0 -129 -106 c-70 -58 -130 -103 -133 -101 -3 3 8 49 25 101 16 52 27 98
24 101 -12 11 -200 5 -210 -7z"/>
<path d="M3552 3868 c-9 -11 -162 -476 -162 -492 0 -3 49 -6 108 -6 l108 0 81
250 c44 137 78 252 75 255 -12 11 -200 5 -210 -7z"/>
<path d="M3802 3868 c-9 -12 -162 -475 -162 -491 0 -4 49 -7 108 -7 l108 0 33
100 c18 55 36 98 41 95 4 -3 34 -48 66 -100 l59 -95 115 3 114 2 78 240 c43
132 76 246 73 253 -3 9 -31 12 -107 10 l-102 -3 -35 -107 c-19 -60 -38 -108
-42 -108 -3 0 -35 44 -70 97 -35 53 -70 103 -77 110 -18 18 -185 18 -200 1z"/>
<path d="M4484 3873 c-6 -4 -47 -120 -92 -256 l-80 -249 207 4 c199 3 208 4
263 30 187 87 264 305 146 415 -48 46 -93 55 -268 60 -91 2 -170 1 -176 -4z
m249 -144 c30 -16 37 -28 37 -67 0 -42 -21 -83 -60 -116 -37 -30 -106 -54
-120 -40 -9 9 43 189 63 222 10 15 51 16 80 1z"/>
<path d="M5077 3873 c-19 -33 -97 -310 -97 -345 0 -56 30 -104 85 -132 76 -40
275 -32 365 14 41 21 101 83 126 131 29 56 115 312 110 326 -6 14 -45 16 -147
7 l-65 -7 -48 -144 c-39 -117 -54 -151 -82 -179 -23 -22 -44 -34 -62 -34 -66
0 -68 50 -8 227 24 72 42 134 38 137 -8 9 -210 7 -215 -1z"/>
<path d="M5835 3870 c-143 -21 -235 -132 -189 -227 15 -30 32 -44 84 -69 36
-18 65 -38 65 -45 0 -26 -71 -34 -151 -18 l-75 15 -5 -25 c-3 -14 -10 -43 -16
-65 -5 -21 -7 -40 -4 -43 12 -12 125 -33 178 -33 126 0 233 48 271 122 35 69
-5 142 -102 188 -55 25 -67 53 -28 64 12 3 88 6 170 6 113 0 147 -3 147 -13 0
-7 -22 -78 -48 -157 -27 -80 -52 -158 -56 -173 l-7 -28 112 3 111 3 58 180 58
180 78 5 79 5 21 60 c12 33 20 63 17 68 -5 9 -701 7 -768 -3z"/>
<path d="M6632 3866 c-5 -6 -42 -114 -82 -241 -40 -126 -75 -236 -77 -242 -4
-10 21 -13 104 -13 l110 0 28 93 c15 50 33 98 40 105 30 33 66 -22 85 -131
l12 -67 206 2 206 3 78 240 c43 132 76 246 73 253 -3 9 -31 12 -107 10 l-101
-3 -76 -228 c-42 -126 -80 -225 -84 -221 -4 4 -7 22 -7 39 0 17 -11 53 -24 80
l-25 48 49 46 c75 71 86 147 29 196 -37 30 -55 33 -261 38 -119 4 -170 2 -176
-7z m256 -108 c18 -18 15 -36 -13 -63 -15 -16 -36 -25 -55 -25 -33 0 -35 6
-18 61 10 35 15 39 43 39 17 0 36 -5 43 -12z"/>
<path d="M7457 3873 c-4 -6 -73 -216 -157 -476 l-9 -28 387 3 387 3 67 33 c77
38 109 75 115 136 5 37 1 48 -23 74 -16 17 -51 39 -78 49 -61 22 -80 48 -51
69 24 18 89 13 135 -11 34 -17 30 -22 66 78 13 36 12 38 -10 47 -62 23 -150
31 -215 20 -120 -21 -198 -80 -208 -158 -7 -52 27 -97 105 -140 34 -18 62 -38
62 -42 0 -20 -87 -30 -272 -30 -116 0 -198 4 -198 9 0 5 4 21 10 35 9 25 12
26 105 26 105 0 105 0 122 83 l6 27 -93 0 c-91 0 -92 0 -86 23 3 12 6 25 6 30
0 4 47 7 104 7 71 0 107 4 113 13 15 19 43 108 37 118 -6 11 -421 12 -427 2z"/>
</g>
</svg>
